<?xml version="1.0" encoding="UTF-8"?>
<!-- Generator: Adobe Illustrator 15.0.2, SVG Export Plug-In . SVG Version: 6.00 Build 0)  -->
<!DOCTYPE svg PUBLIC "-//W3C//DTD SVG 1.1//EN" "http://www.w3.org/Graphics/SVG/1.1/DTD/svg11.dtd">
<svg version="1.1" id="Layer_1" xmlns="http://www.w3.org/2000/svg" xmlns:xlink="http://www.w3.org/1999/xlink" x="0px" y="0px" width="394.214px" height="85.11px" viewBox="3.313 2.635 394.214 85.11" enable-background="new 3.313 2.635 394.214 85.11" xml:space="preserve">
<path fill="#FFCD05" d="M81.466,13.225c0-1.465-0.346-2.154-1.465-2.154h-1.984c-0.26,0-0.347-0.088-0.347-0.391V9.688  c0-0.258,0.087-0.344,0.432-0.344c0.433,0,2.5,0.129,6.643,0.129c3.622,0,5.691-0.129,6.209-0.129c0.258,0,0.344,0.086,0.344,0.303  v1.078c0,0.258-0.086,0.346-0.344,0.346h-1.812c-1.294,0-2.068,0.773-2.112,1.68c-0.044,0.52-0.129,3.105-0.129,5.605v5.35  c0,2.154,0.042,5.217,0.129,6.598c0.13,1.984,0.474,3.967,1.51,5.348c1.467,1.98,3.796,2.672,5.864,2.672  c1.982,0,4.399-0.779,5.777-2.068c1.642-1.639,2.502-4.141,2.502-7.289v-7.762c0-3.451-0.346-7.248-0.475-8.236  c-0.129-1.123-0.818-1.896-1.768-1.896h-1.554c-0.257,0-0.344-0.131-0.344-0.305v-1.08c0-0.258,0.087-0.344,0.344-0.344  c0.433,0,2.416,0.129,5.263,0.129c2.674,0,4.053-0.129,4.397-0.129c0.39,0,0.433,0.129,0.433,0.344v0.992  c0,0.26-0.043,0.391-0.26,0.391h-1.551c-1.555,0-1.727,1.205-1.813,1.68c-0.085,0.52-0.085,6.555-0.085,7.117  c0,0.602-0.087,8.107-0.257,9.832c-0.261,3.533-1.297,6.209-3.624,8.277c-1.812,1.641-4.572,2.674-7.849,2.674  c-2.07,0-4.571-0.344-6.21-1.033c-2.502-1.035-4.227-3.02-5.09-5.777c-0.604-1.9-0.774-4.748-0.774-10.398V13.225z"/>
<path fill="#FFCD05" d="M110.189,30.387c0.171,0,0.258,0.088,0.258,0.346c0.087,1.379,0.432,3.018,1.64,4.918  c1.293,2.066,3.536,3.102,5.693,3.102c2.326,0,5.604-1.465,5.604-5.043c0-3.967-1.81-5.264-6.381-6.986  c-1.38-0.516-4.227-1.727-6.296-3.621c-1.467-1.385-2.157-3.537-2.157-6.168c0-2.416,0.949-4.398,3.02-6.039  c1.726-1.463,3.623-2.068,6.124-2.068c2.845,0,4.571,0.688,5.433,1.035c0.431,0.172,0.69,0.084,0.906-0.131l0.559-0.559  c0.174-0.174,0.346-0.258,0.604-0.258c0.26,0,0.346,0.258,0.346,0.688c0,0.691,0.69,6.727,0.69,7.16  c0,0.172-0.087,0.258-0.259,0.303l-0.689,0.217c-0.174,0.041-0.347,0-0.432-0.262c-0.433-1.207-1.122-2.934-2.675-4.57  c-1.12-1.207-2.5-1.812-4.483-1.812c-3.452,0-4.831,2.76-4.831,4.355c0,1.467,0.173,2.76,1.207,3.881  c1.123,1.123,3.537,2.156,5.263,2.676c2.499,0.775,4.569,1.639,6.209,3.361c1.378,1.469,2.155,3.277,2.155,6.17  c0,5.26-3.449,9.57-9.141,9.57c-3.537,0-5.607-0.775-7.332-2.068c-0.517-0.346-0.776-0.52-1.034-0.52  c-0.259,0-0.432,0.346-0.69,0.777c-0.258,0.431-0.43,0.52-0.775,0.52c-0.344,0-0.519-0.26-0.519-0.691  c0.087-0.52,0.69-7.506,0.775-8.021c0.045-0.26,0.089-0.344,0.26-0.344L110.189,30.387z"/>
<path fill="#FFCD05" d="M158.056,32.975c0.131,0.129,0.172,0.258,0.086,0.43c-2.588,3.711-6.728,7.246-12.85,7.246  c-5.521,0-8.624-1.641-11.298-4.055c-3.192-2.844-4.656-7.848-4.656-11.641c0-4.227,1.379-8.281,4.397-11.559  c2.328-2.5,6.036-4.57,11.212-4.57c3.969,0,7.158,1.207,8.709,2.07c0.602,0.346,0.778,0.346,0.864,0l0.344-1.123  c0.086-0.256,0.172-0.256,0.689-0.256c0.517,0,0.605,0.084,0.605,0.689c0,0.777,0.861,7.674,1.033,8.967  c0.045,0.26,0,0.391-0.172,0.436l-0.82,0.258c-0.215,0.084-0.344-0.088-0.473-0.434c-0.52-1.553-1.553-3.707-3.363-5.605  c-1.897-1.812-4.14-3.191-7.505-3.191c-6.897,0-9.744,6.211-9.744,12.42c0,2.672,0.776,7.762,3.967,11.211  c2.848,3.02,5.348,3.363,7.418,3.363c4.743,0,8.493-2.369,10.306-5.002c0.215-0.303,0.387-0.43,0.518-0.303L158.056,32.975z"/>
<path fill="#FFFFFF" d="M171.512,39.746c-2.931-1.164-4.441-3.062-5.13-5.781c-0.518-1.938-0.691-4.826-0.691-10.479V13.225  c0-1.508-0.301-2.199-1.639-2.199h-2.027c-0.256,0-0.301-0.086-0.301-0.387V9.688c0-0.258,0.045-0.344,0.389-0.344  c0.432,0,2.544,0.129,5.907,0.129s5.433-0.129,5.908-0.129c0.346,0,0.389,0.086,0.389,0.258v1.123c0,0.215-0.043,0.301-0.346,0.301  h-2.154c-1.254,0-1.988,0.818-2.072,1.768c-0.043,0.389-0.086,3.406-0.086,5.607v2.846c0,2.283,0.17,7.76,0.215,9.141  c0.043,1.984,0.387,4.012,1.381,5.477c1.594,2.33,4.356,3.105,6.856,3.105c2.458,0,4.958-0.82,6.468-2.371  c1.682-1.812,2.243-4.398,2.243-7.592v-9.225c0-3.279-0.086-5.781-0.215-6.857c-0.129-1.123-0.821-1.898-1.942-1.898h-1.896  c-0.258,0-0.303-0.129-0.303-0.346V9.646c0-0.217,0.045-0.303,0.303-0.303c0.432,0,2.414,0.129,5.303,0.129  c2.976,0,4.355-0.129,4.744-0.129s0.432,0.174,0.432,0.303v0.949c0,0.258-0.043,0.43-0.26,0.43h-1.768  c-1.596,0-1.725,1.209-1.853,1.725c-0.088,0.432-0.088,6.555-0.088,7.158c0,0.603-0.086,8.152-0.215,9.834  c-0.258,3.533-1.207,6.252-3.621,8.32c-1.727,1.598-4.355,2.588-8.109,2.588C175.095,40.65,172.937,40.352,171.512,39.746"/>
<path fill="#FFFFFF" d="M208.56,37.676c0,0.689,0.387,0.906,0.946,0.906h1.379c0.392,0,0.478,0.129,0.478,0.387v0.691  c0,0.301-0.086,0.475-0.346,0.475c-0.304,0-1.638-0.131-4.095-0.131c-2.2,0-3.58,0.131-3.883,0.131  c-0.261,0-0.347-0.131-0.347-0.475v-0.691c0-0.303,0.134-0.387,0.562-0.387h1.252c0.476,0,0.818-0.217,0.863-0.992  c0.043-1.123,0.086-2.502,0.086-3.623v-5.693c0-1.725,0-2.973-1.25-3.879c-1.037-0.775-2.072-0.775-3.149-0.775  c-0.69,0-2.199,0.301-3.495,1.682c-0.862,0.949-0.991,2.111-0.991,2.93v8.928c0,1.164,0.129,1.424,1.034,1.424h1.079  c0.346,0,0.432,0.129,0.432,0.428v0.736c0,0.258-0.086,0.389-0.303,0.389c-0.301,0-1.465-0.131-3.753-0.131  c-2.197,0-3.578,0.131-3.836,0.131c-0.217,0-0.303-0.131-0.303-0.389v-0.777c0-0.258,0.086-0.387,0.43-0.387h1.252  c0.561,0,0.861-0.131,0.861-0.865v-10.09c0-1.293-0.689-2.025-1.768-2.545l-0.346-0.172c-0.301-0.127-0.344-0.256-0.344-0.387  v-0.217c0-0.215,0.172-0.344,0.389-0.432l3.709-2.068c0.344-0.172,0.604-0.303,0.777-0.303c0.213,0,0.299,0.172,0.342,0.52  l0.303,2.631h0.086c1.254-1.553,3.753-3.15,5.91-3.15c1.293,0,2.629,0.258,3.666,0.947c1.293,0.865,2.371,3.021,2.371,4.098v11.125  H208.56z"/>
<path fill="#FFFFFF" d="M215.722,27.453c0-1.463-0.261-2.24-2.416-2.584c-0.302-0.043-0.39-0.129-0.39-0.303v-0.389  c0-0.131,0.088-0.215,0.301-0.301c1.382-0.518,3.021-1.209,4.658-2.113c0.347-0.172,0.56-0.26,0.819-0.26  c0.216,0,0.259,0.215,0.216,0.52c-0.086,0.732-0.086,3.449-0.086,7.027v4.701c0,1.682,0,3.234,0.043,3.705  c0.086,0.822,0.213,1.125,0.688,1.125h1.984c0.346,0,0.43,0.129,0.43,0.387v0.734c0,0.303-0.084,0.432-0.387,0.432  c-0.346,0-2.328-0.129-4.141-0.129c-2.5,0-4.183,0.129-4.654,0.129c-0.217,0-0.346-0.088-0.346-0.346v-0.863  c0-0.258,0.129-0.344,0.43-0.344h2.111c0.477,0,0.646-0.174,0.692-0.865c0.043-1.295,0.043-2.629,0.043-3.922v-6.341H215.722z   M213.778,14.303c0-1.078,0.906-2.242,2.63-2.242c1.512,0,2.243,1.164,2.243,2.113c0,1.119-0.776,2.373-2.502,2.373  C215.201,16.547,213.778,15.686,213.778,14.303"/>
<path fill="#FFFFFF" d="M231.071,36.037h0.128c0.69-1.682,3.709-9.055,4.143-10.738c0.302-1.164,0-1.854-0.774-1.854h-0.863  c-0.131,0-0.174-0.217-0.174-0.432v-0.775c0-0.26,0.088-0.346,0.258-0.346c0.604,0,1.555,0.129,3.451,0.129  c1.684,0,2.717-0.129,3.104-0.129c0.346,0,0.389,0.043,0.389,0.387v0.734c0,0.301,0,0.432-0.215,0.432h-0.817  c-0.519,0-0.949,0.084-1.339,0.477c-0.646,0.602-2.803,5.303-3.45,6.898c-0.519,1.291-3.709,8.537-3.879,8.84  c-0.347,0.602-0.562,0.99-1.035,0.99c-0.431,0-0.688-0.389-0.906-0.904c-0.086-0.217-3.233-8.41-3.364-8.756  c-0.127-0.344-1.896-5.262-2.197-5.951c-0.562-1.25-0.992-1.594-1.771-1.594h-0.86c-0.215,0-0.26-0.174-0.26-0.432v-0.775  c0-0.303,0.088-0.346,0.477-0.346c0.475,0,1.205,0.129,3.621,0.129c2.287,0,3.408-0.129,3.883-0.129c0.344,0,0.43,0.086,0.43,0.346  v0.775c0,0.258-0.043,0.432-0.299,0.432h-0.865c-0.432,0-0.775,0.26-0.775,0.818c0,0.775,1.121,4.355,1.379,5.09  C228.746,30.172,230.599,35.131,231.071,36.037"/>
<path fill="#FFFFFF" d="M242.76,28.533c-0.086,0.389-0.131,1.08-0.131,2.068c0,4.229,2.677,7.418,6.125,7.418  c2.631,0,4.483-1.508,5.22-2.932c0.086-0.172,0.258-0.258,0.387-0.215l0.562,0.303c0.129,0.043,0.213,0.17,0,0.645  c-0.776,1.725-3.022,4.699-6.858,4.699c-2.457,0-5.174-0.73-6.769-3.062c-1.51-2.195-1.897-3.791-1.897-6.811  c0-1.682,0.432-4.57,2.715-6.855c1.854-1.9,4.012-2.287,6.168-2.287c4.959,0,6.34,4.66,6.34,6.34c0,0.602-0.52,0.689-1.207,0.689  H242.76z M249.615,27.24c0.817,0,1.166-0.215,1.166-0.605c0-0.99-0.521-3.836-3.32-3.836c-1.899,0-3.707,1.248-4.528,4.441H249.615z  "/>
<path fill="#FFFFFF" d="M258.653,28.533c0-2.199-0.344-2.631-1.555-3.277l-0.82-0.432c-0.258-0.084-0.342-0.129-0.342-0.301v-0.262  c0-0.17,0.084-0.256,0.342-0.385l4.271-2.201c0.261-0.129,0.433-0.172,0.604-0.172c0.26,0,0.303,0.26,0.303,0.52l0.217,2.973h0.172  c1.295-1.982,3.32-3.75,5.176-3.75c1.467,0,2.197,0.904,2.197,1.898c0,1.25-1.035,2.111-1.811,2.111  c-0.475,0-0.906-0.172-1.248-0.346c-0.348-0.215-0.865-0.344-1.426-0.344c-0.689,0-1.812,0.43-2.543,1.811  c-0.26,0.475-0.435,1.25-0.435,1.383v9.055c0,1.334,0.308,1.768,1.209,1.768h2.025c0.262,0,0.303,0.129,0.303,0.387v0.777  c0,0.26-0.041,0.389-0.215,0.389c-0.259,0-2.244-0.129-4.572-0.129c-2.674,0-4.483,0.129-4.741,0.129  c-0.173,0-0.259-0.088-0.259-0.432v-0.734c0-0.303,0.086-0.387,0.474-0.387h1.684c0.648,0,0.949-0.26,0.949-0.82  c0.043-1.422,0.043-2.932,0.043-5.174v-4.055H258.653z"/>
<path fill="#FFFFFF" d="M270.272,39.271c-0.215-0.129-0.215-0.389-0.258-0.604l-0.731-4.098c-0.041-0.215,0.088-0.303,0.258-0.348  l0.562-0.125c0.172-0.045,0.301,0.043,0.387,0.258l1.082,2.111c0.861,1.596,1.463,2.676,3.748,2.676  c1.512,0,3.408-0.906,3.408-2.934c0-1.941-0.949-3.062-4.183-3.967c-2.545-0.732-5.09-2.068-5.09-5.479  c0-2.975,2.805-5.26,6.041-5.26c2.065,0,3.188,0.52,3.965,0.906c0.647,0.303,0.729,0.518,0.774,0.773l0.646,3.02  c0,0.174-0.086,0.305-0.301,0.391l-0.52,0.17c-0.172,0.045-0.259,0-0.388-0.215l-1.467-1.982c-0.517-0.82-1.336-1.682-3.021-1.682  c-1.637,0-3.317,0.992-3.317,2.846c0,2.5,2.024,2.977,4.139,3.578c3.148,0.906,5.134,2.201,5.177,5.521  c-0.043,3.492-2.89,5.689-6.556,5.689C272.519,40.52,270.795,39.66,270.272,39.271"/>
<path fill="#FFFFFF" d="M285.498,27.453c0-1.463-0.261-2.24-2.416-2.584c-0.301-0.043-0.388-0.129-0.388-0.303v-0.389  c0-0.131,0.087-0.215,0.302-0.301c1.383-0.518,3.021-1.209,4.66-2.113c0.344-0.172,0.557-0.26,0.815-0.26  c0.217,0,0.26,0.215,0.217,0.52c-0.086,0.732-0.086,3.449-0.086,7.027v4.701c0,1.682,0,3.234,0.043,3.705  c0.086,0.822,0.215,1.125,0.689,1.125h1.984c0.344,0,0.428,0.129,0.428,0.387v0.734c0,0.303-0.084,0.432-0.385,0.432  c-0.346,0-2.33-0.129-4.141-0.129c-2.5,0-4.183,0.129-4.656,0.129c-0.217,0-0.346-0.088-0.346-0.346v-0.863  c0-0.258,0.129-0.344,0.43-0.344h2.113c0.475,0,0.647-0.174,0.69-0.865c0.043-1.295,0.043-2.629,0.043-3.922v-6.341H285.498z   M283.56,14.303c0-1.078,0.905-2.242,2.631-2.242c1.508,0,2.24,1.164,2.24,2.113c0,1.119-0.773,2.373-2.503,2.373  C284.979,16.547,283.56,15.686,283.56,14.303"/>
<path fill="#FFFFFF" d="M297.313,34.615c0,3.232,1.465,3.793,2.242,3.793c0.992,0,2.24-0.172,2.846-0.561  c0.218-0.129,0.39-0.086,0.519,0.084l0.218,0.391c0.127,0.172,0.043,0.346-0.087,0.473c-0.432,0.434-2.198,1.725-4.788,1.725  c-2.109,0-4.183-2.025-4.183-3.662c0-1.77,0.129-5.564,0.129-6.168v-0.947c0-0.777,0.043-3.666,0.086-5.479h-2.629  c-0.39,0-0.647-0.172-0.647-0.518c0-0.344,0.26-0.475,0.774-0.775c1.035-0.604,4.358-3.967,4.918-5.434  c0.129-0.344,0.345-0.43,0.604-0.43c0.346,0,0.432,0.301,0.432,0.645l-0.217,4.271h5.996c0.258,0,0.387,0.215,0.301,0.387  l-0.432,1.51c-0.045,0.215-0.131,0.344-0.39,0.344h-5.562c-0.084,1.986-0.129,4.053-0.129,6.039v4.312H297.313z"/>
<path fill="#FFFFFF" d="M304.646,49.535c0-0.906,0.951-1.685,1.984-1.685c0.822,0,1.596,0.39,1.986,0.476  c0.301,0.047,0.645,0,0.903-0.257c0.646-0.776,2.847-5.694,3.449-7.375c-0.213-1.078-4.787-14.531-5.131-15.439  c-0.518-1.078-0.906-1.814-2.026-1.814h-1.123c-0.301,0-0.345-0.125-0.345-0.385v-0.863c0-0.17,0.044-0.301,0.345-0.301  c0.391,0,1.424,0.131,3.971,0.131c2.197,0,3.535-0.131,4.01-0.131c0.342,0,0.387,0.131,0.387,0.301v0.908  c0,0.215-0.045,0.34-0.258,0.34h-0.82c-0.475,0-0.647,0.305-0.562,0.953c0.133,0.949,3.064,10.436,3.539,11.383h0.172  c0.432-0.689,4.184-9.613,4.441-10.693c0.26-1.08-0.086-1.643-0.734-1.643h-0.688c-0.263,0-0.304-0.125-0.304-0.34v-0.863  c0-0.215,0.041-0.346,0.258-0.346c0.562,0,1.468,0.131,3.537,0.131c1.164,0,2.156-0.131,2.629-0.131  c0.261,0,0.261,0.174,0.261,0.346v0.818c0,0.26,0,0.385-0.216,0.385h-0.688c-0.475,0-1.078,0.217-1.51,0.781  c-0.949,1.164-3.797,7.717-6.773,14.488c-2.111,4.787-3.791,8.796-4.565,10.218c-0.607,1.123-1.382,2.805-3.669,2.805  C305.467,51.733,304.646,50.83,304.646,49.535"/>
<path fill="#FFFFFF" d="M333.311,37.545c-1.981-2.369-2.372-3.967-2.372-7.027c0-2.201,1.163-4.961,3.709-6.943  c2.241-1.727,4.354-2.07,5.776-2.07c2.371,0,4.744,1.205,6.039,2.5c1.939,1.986,2.93,4.227,2.93,7.031  c0,4.699-4.225,9.484-9.528,9.484C337.795,40.52,335.121,39.703,333.311,37.545 M345.771,30.604c0-4.787-3.494-7.805-5.691-7.805  c-1.166,0-2.285,0.258-3.32,1.379c-1.684,1.725-2.287,3.492-2.287,6.77c0,2.416,0.263,4.053,1.642,6.039  c0.989,1.422,2.242,2.242,4.268,2.242C343.66,39.229,345.771,35.219,345.771,30.604"/>
<path fill="#FFFFFF" d="M353.795,24.092h-2.979c-0.216,0-0.298-0.088-0.216-0.475l0.175-1.295c0.041-0.256,0.174-0.301,0.518-0.301  h2.502v-0.818c0-4.27,1.205-7.07,2.891-8.967c2.285-2.502,4.656-3.41,7.068-3.41c2.031,0,3.926,0.775,3.926,2.414  c0,1.035-1.121,1.855-1.812,1.855c-0.43,0-0.861-0.088-1.207-0.26c-0.387-0.215-0.861-0.775-1.035-0.992  c-0.561-0.689-1.162-0.99-1.982-0.99c-1.12,0-2.282,0.301-3.233,1.51c-1.594,2.023-1.51,5.777-1.51,8.797v0.861h5.219  c0.303,0,0.346,0.258,0.303,0.43l-0.217,1.426c-0.043,0.17-0.213,0.215-0.562,0.215H356.9v3.84c0,5.086,0,9.055,0.045,9.525  c0.084,0.736,0.213,1.125,1.121,1.125h2.457c0.389,0,0.475,0.084,0.475,0.344v0.691c0,0.346-0.086,0.518-0.301,0.518  c-0.26,0-1.855-0.129-5.176-0.129c-2.371,0-4.57,0.129-4.918,0.129c-0.259,0-0.345-0.088-0.345-0.301v-0.949  c0-0.219,0.086-0.303,0.433-0.303h2.069c0.82,0,0.992-0.52,1.035-1.51v-8.107L353.795,24.092L353.795,24.092z"/>
<path fill="#FFFFFF" d="M83.933,78.876c-0.517-0.387-0.775-0.518-0.991-0.518c-0.259,0-0.431,0.301-0.689,0.729  c-0.259,0.479-0.475,0.521-0.777,0.521c-0.258,0-0.475-0.217-0.389-0.689c0.173-1.078,0.604-6.555,0.734-7.803  c0.042-0.26,0.129-0.26,0.302-0.26l0.646,0.043c0.173,0,0.258,0.086,0.258,0.348c0.043,1.379,0.131,2.803,1.553,4.998  c1.295,2.023,3.667,3.193,6.037,3.193c2.588,0,5.865-1.599,5.865-5.478c0-4.442-3.19-6.082-6.641-7.287  c-1.336-0.478-4.442-1.555-6.295-3.493c-1.424-1.425-2.156-3.449-2.156-6.298c0-2.155,1.336-4.268,2.672-5.521  c1.553-1.467,3.71-2.067,6.039-2.067c2.457,0,4.354,0.729,5.087,1.076c0.389,0.217,0.604,0.174,0.82-0.043l0.561-0.519  c0.216-0.174,0.343-0.256,0.561-0.256c0.214,0,0.343,0.342,0.343,0.729c0,1.51,0.562,5.909,0.606,6.86  c0,0.213-0.044,0.299-0.216,0.342l-0.52,0.13c-0.128,0.043-0.214,0-0.258-0.13c-0.346-1.252-0.905-2.93-2.673-4.784  c-1.164-1.252-2.674-1.854-4.7-1.854c-3.838,0-5.218,2.85-5.218,5.045c0,1.209,0.258,2.629,1.336,3.75  c1.251,1.252,3.665,2.202,4.916,2.59c2.975,0.949,5.39,1.68,6.942,3.578c1.122,1.336,1.897,3.02,1.897,5.864  c0,5.089-3.104,9.445-8.798,9.445C87.772,81.121,85.659,80.214,83.933,78.876"/>
<path fill="#FFFFFF" d="M103.799,78.013c-1.984-2.369-2.373-3.963-2.373-7.027c0-2.198,1.165-4.959,3.709-6.94  c2.242-1.729,4.355-2.069,5.778-2.069c2.372,0,4.745,1.207,6.038,2.502c1.941,1.981,2.932,4.225,2.932,7.026  c0,4.701-4.225,9.486-9.531,9.486C108.283,80.99,105.609,80.169,103.799,78.013 M116.261,71.071c0-4.786-3.493-7.805-5.692-7.805  c-1.164,0-2.285,0.26-3.32,1.379c-1.682,1.726-2.285,3.492-2.285,6.771c0,2.414,0.259,4.055,1.638,6.035  c0.992,1.424,2.243,2.244,4.271,2.244C114.147,79.696,116.261,75.685,116.261,71.071"/>
<path fill="#FFFFFF" d="M137.708,71.718c0,2.07,0,4.182,0.088,5.09c0.127,1.336,0.603,1.508,1.12,1.508c0.259,0,0.906,0,1.423-0.129  c0.347-0.086,0.477,0,0.519,0.172l0.13,0.562c0.043,0.258-0.043,0.346-0.216,0.389l-4.528,1.506  c-0.259,0.088-0.518,0.177-0.862,0.177c-0.174,0-0.345-0.089-0.388-0.521l-0.346-2.502h-0.086c-1.207,1.682-3.709,3.021-5.866,3.021  c-1.206,0-2.63-0.131-4.052-1.986c-1.769-2.283-1.682-3.707-1.682-8.451v-5.002c-0.045-1.205-0.646-1.508-1.64-1.639  c-0.733-0.041-0.948-0.088-0.948-0.303v-0.775c0-0.258,0.086-0.346,0.474-0.346h3.839c0.258,0,0.432-0.043,0.604-0.086  c0.172,0,0.344-0.043,0.473-0.043c0.302,0,0.519,0.217,0.475,0.518c-0.042,0.389-0.173,2.412-0.173,4.959v3.062  c0,1.728-0.431,4.484,0.949,6.47c1.078,1.553,2.286,1.637,3.449,1.637c1.165,0,2.891-1.121,3.709-2.153  c0.175-0.22,0.432-0.777,0.432-1.166V65.423c-0.086-1.209-0.776-1.424-1.854-1.51c-0.733,0-0.948-0.088-0.948-0.303v-0.732  c0-0.348,0.087-0.389,0.517-0.389h4.01c0.302,0,0.518-0.043,0.733-0.086c0.215,0,0.389-0.043,0.519-0.043  c0.259,0,0.431,0.217,0.388,0.43c-0.045,0.389-0.26,1.51-0.26,5.738v3.189H137.708z"/>
<path fill="#FFFFFF" d="M147.17,75.083c0,3.232,1.466,3.793,2.242,3.793c0.992,0,2.243-0.172,2.846-0.561  c0.216-0.129,0.386-0.086,0.517,0.086l0.214,0.387c0.129,0.174,0.043,0.348-0.086,0.475c-0.429,0.434-2.197,1.728-4.785,1.728  c-2.113,0-4.183-2.027-4.183-3.666c0-1.769,0.128-5.562,0.128-6.166v-0.949c0-0.774,0.044-3.664,0.088-5.478h-2.632  c-0.389,0-0.645-0.172-0.645-0.518s0.256-0.473,0.775-0.777c1.035-0.602,4.354-3.963,4.916-5.432c0.13-0.346,0.346-0.43,0.604-0.43  c0.344,0,0.431,0.301,0.431,0.646l-0.216,4.268h5.993c0.26,0,0.389,0.217,0.303,0.389l-0.432,1.51  c-0.045,0.215-0.131,0.344-0.389,0.344h-5.562c-0.085,1.982-0.128,4.056-0.128,6.037L147.17,75.083L147.17,75.083z"/>
<path fill="#FFFFFF" d="M157.058,56.972c0-2.633-0.52-3.104-2.068-3.625l-0.735-0.258c-0.258-0.088-0.301-0.129-0.301-0.258V52.44  c0-0.17,0.127-0.213,0.518-0.428l4.482-2.373c0.346-0.175,0.648-0.345,0.995-0.345c0.258,0,0.43,0.345,0.344,1.076  s-0.129,9.487-0.129,11.646v2.756h0.215c1.51-1.809,4.009-2.801,5.908-2.801c1.81,0,3.062,0.557,4.267,1.725  c1.943,1.812,1.857,4.015,1.857,6.339v2.457c0,2.416,0.086,5.09,0.086,5.909c0,0.517,0.69,0.646,1.596,0.646h0.733  c0.346,0,0.475,0.086,0.475,0.387v0.646c0,0.346-0.088,0.518-0.344,0.518c-0.303,0-1.684-0.129-4.143-0.129  c-2.113,0-3.664,0.129-4.052,0.129c-0.3,0-0.386-0.129-0.386-0.475v-0.73c0-0.217,0.043-0.346,0.3-0.346h0.992  c0.732,0,1.593-0.088,1.638-0.82c0.043-0.604,0-2.889,0-4.268v-3.49c0-2.416-0.172-4.141-1.423-5.307  c-0.863-0.816-1.769-1.207-2.845-1.207c-1.251,0-2.804,0.432-4.009,1.809c-0.391,0.478-0.863,1.34-0.863,2.115v9.4  c0,1.381,0.129,1.77,0.949,1.77h1.293c0.301,0,0.475,0.086,0.475,0.346v0.73c0,0.303-0.086,0.475-0.346,0.475  c-0.344,0-2.113-0.129-4.096-0.129c-2.158,0-3.795,0.129-4.184,0.129c-0.174,0-0.301-0.129-0.301-0.43v-0.775  c0-0.303,0.172-0.346,0.647-0.346h0.906c0.688,0,1.334-0.174,1.422-0.691c0.129-0.815,0.129-5.562,0.129-8.366V56.972H157.058z"/>
<path fill="#FFFFFF" d="M179.007,69c-0.086,0.394-0.131,1.08-0.131,2.071c0,4.228,2.673,7.419,6.125,7.419  c2.629,0,4.484-1.511,5.216-2.935c0.086-0.172,0.26-0.258,0.389-0.215l0.561,0.303c0.131,0.043,0.217,0.172,0,0.646  c-0.777,1.728-3.019,4.701-6.855,4.701c-2.459,0-5.173-0.732-6.771-3.062c-1.51-2.201-1.896-3.797-1.896-6.812  c0-1.685,0.43-4.572,2.717-6.859c1.853-1.897,4.009-2.282,6.164-2.282c4.96,0,6.341,4.655,6.341,6.338  c0,0.604-0.52,0.688-1.209,0.688L179.007,69L179.007,69z M185.864,67.708c0.819,0,1.164-0.217,1.164-0.604  c0-0.99-0.517-3.838-3.322-3.838c-1.896,0-3.707,1.25-4.527,4.44L185.864,67.708L185.864,67.708z"/>
<path fill="#FFFFFF" d="M195.208,69.001c0-2.199-0.344-2.631-1.555-3.277l-0.818-0.432c-0.26-0.086-0.344-0.127-0.344-0.303v-0.256  c0-0.174,0.084-0.258,0.344-0.387l4.27-2.201c0.258-0.131,0.432-0.174,0.604-0.174c0.26,0,0.303,0.26,0.303,0.518l0.215,2.977h0.172  c1.293-1.984,3.323-3.752,5.178-3.752c1.463,0,2.197,0.904,2.197,1.898c0,1.248-1.033,2.111-1.812,2.111  c-0.473,0-0.903-0.173-1.25-0.345c-0.346-0.215-0.862-0.346-1.424-0.346c-0.691,0-1.812,0.432-2.543,1.812  c-0.26,0.475-0.432,1.25-0.432,1.377v9.06c0,1.336,0.301,1.766,1.205,1.766h2.027c0.258,0,0.303,0.131,0.303,0.39v0.776  c0,0.259-0.045,0.388-0.213,0.388c-0.262,0-2.247-0.129-4.575-0.129c-2.674,0-4.487,0.129-4.743,0.129  c-0.172,0-0.262-0.086-0.262-0.433v-0.731c0-0.302,0.09-0.39,0.477-0.39h1.682c0.648,0,0.949-0.26,0.949-0.817  c0.043-1.422,0.043-2.933,0.043-5.177L195.208,69.001L195.208,69.001z"/>
<path fill="#FFFFFF" d="M224.215,78.144c0,0.691,0.388,0.906,0.947,0.906h1.381c0.392,0,0.476,0.129,0.476,0.387v0.689  c0,0.303-0.084,0.475-0.345,0.475c-0.303,0-1.639-0.129-4.098-0.129c-2.199,0-3.578,0.129-3.88,0.129  c-0.26,0-0.346-0.129-0.346-0.475v-0.689c0-0.301,0.127-0.387,0.56-0.387h1.25c0.478,0,0.819-0.215,0.862-0.992  c0.043-1.121,0.088-2.502,0.088-3.621v-5.694c0-1.726,0-2.976-1.252-3.882c-1.034-0.772-2.069-0.772-3.146-0.772  c-0.692,0-2.198,0.302-3.491,1.681c-0.865,0.95-0.994,2.112-0.994,2.934v8.926c0,1.162,0.129,1.424,1.035,1.424h1.077  c0.347,0,0.431,0.129,0.431,0.432v0.732c0,0.258-0.084,0.387-0.301,0.387c-0.3,0-1.466-0.129-3.753-0.129  c-2.196,0-3.575,0.129-3.836,0.129c-0.215,0-0.303-0.129-0.303-0.387v-0.777c0-0.258,0.088-0.387,0.433-0.387h1.25  c0.561,0,0.862-0.131,0.862-0.863v-10.09c0-1.295-0.69-2.024-1.771-2.545l-0.344-0.174c-0.301-0.129-0.344-0.26-0.344-0.387v-0.215  c0-0.217,0.17-0.346,0.387-0.43l3.709-2.074c0.344-0.172,0.604-0.301,0.775-0.301c0.215,0,0.303,0.174,0.346,0.518l0.301,2.629  h0.086c1.254-1.551,3.75-3.146,5.91-3.146c1.293,0,2.629,0.26,3.664,0.951c1.293,0.861,2.371,3.016,2.371,4.094L224.215,78.144  L224.215,78.144z"/>
<path fill="#FFFFFF" d="M240.731,77.151c-3.106-2.93-4.612-7.936-4.612-12.073c0-4.009,1.293-8.147,4.396-11.425  c2.2-2.334,6.082-4.356,10.782-4.356c3.925,0,7.158,1.466,8.711,2.369c0.562,0.349,0.773,0.303,0.863,0l0.344-1.248  c0.086-0.262,0.175-0.262,0.56-0.262c0.391,0,0.475,0.086,0.475,0.69c0,0.818,0.863,7.158,1.078,8.365  c0.043,0.219,0,0.389-0.172,0.434l-0.646,0.17c-0.215,0.045-0.301,0-0.432-0.342c-0.604-1.424-1.551-3.496-3.363-5.352  c-1.811-1.852-4.096-3.318-7.504-3.318c-7.719,0-10.822,6.854-10.779,13.152c0,2.5,0.777,7.375,4.139,11.084  c2.933,3.275,5.392,3.619,8.277,3.619c4.877,0,8.67-2.674,10.654-5.475c0.129-0.218,0.215-0.259,0.344-0.131l0.562,0.432  c0.127,0.088,0.215,0.174,0.086,0.389c-2.588,3.752-6.77,7.246-12.85,7.246C246.554,81.121,243.317,79.524,240.731,77.151"/>
<path fill="#FFFFFF" d="M278.396,75.341c0,2.459,0.517,3.232,1.293,3.232c0.689,0,1.295-0.344,1.508-0.645  c0.175-0.22,0.261-0.304,0.435-0.173l0.431,0.345c0.133,0.129,0.217,0.348-0.043,0.774c-0.345,0.647-1.164,2.112-3.363,2.112  c-1.553,0-2.674-1.122-3.062-2.889h-0.086c-0.907,1.078-2.33,1.982-4.271,2.629c-0.819,0.26-1.598,0.26-2.543,0.26  c-1.039,0-2.59-0.862-2.59-3.579c0-1.982,0.906-3.707,4.312-5.22c1.943-0.86,4.182-1.895,4.873-2.498v-2.762  c-0.086-0.731-0.129-1.854-0.604-2.412c-0.476-0.562-1.336-0.951-2.59-0.951c-0.859,0-2.197,0.347-2.8,0.908  c-0.604,0.558-0.217,1.205-0.217,1.98c0,1.51-0.521,2.459-2.287,2.459c-0.688,0-1.033-0.389-1.033-1.381  c0-1.379,1.207-3.016,2.978-4.053c1.811-1.078,3.318-1.508,5.26-1.508c2.027,0,2.846,0.604,3.451,1.163  c0.904,0.906,0.947,1.896,0.947,3.062v6.598V75.341L278.396,75.341z M275.248,70.985c-1.554,1.166-5.776,2.025-5.776,5.604  c0,1.599,0.946,2.373,2.241,2.373c1.248,0,3.535-1.51,3.535-2.674V70.985z"/>
<path fill="#FFFFFF" d="M289.271,67.623c0,2.239,0,8.754,0.045,10.088c0.043,0.735,0.213,1.34,1.121,1.34h1.938  c0.39,0,0.476,0.13,0.476,0.388v0.733c0,0.256-0.086,0.431-0.259,0.431c-0.303,0-2.2-0.129-4.872-0.129  c-2.761,0-4.484,0.129-4.875,0.129c-0.214,0-0.3-0.175-0.3-0.431v-0.733c0-0.301,0.086-0.388,0.56-0.388h2.067  c0.478,0,0.908-0.303,0.949-1.079c0.043-1.339,0.043-8.755,0.043-11.253V64c0-3.062-0.043-6.983-0.129-8.106  c-0.086-1.468-0.772-2.154-2.154-2.586l-0.862-0.306c-0.215-0.082-0.259-0.125-0.259-0.215v-0.345c0-0.129,0.13-0.215,0.39-0.303  c1.51-0.688,3.447-1.465,5.043-2.5c0.389-0.26,0.647-0.346,0.906-0.346c0.303,0,0.389,0.217,0.348,0.777  c-0.045,2.371-0.176,11.34-0.176,13.713V67.623L289.271,67.623z"/>
<path fill="#FFFFFF" d="M297.115,67.925c0-1.467-0.259-2.244-2.416-2.59c-0.302-0.043-0.388-0.127-0.388-0.301v-0.389  c0-0.129,0.086-0.215,0.304-0.299c1.381-0.521,3.018-1.209,4.655-2.113c0.347-0.174,0.562-0.26,0.818-0.26  c0.219,0,0.262,0.215,0.219,0.516c-0.086,0.732-0.086,3.451-0.086,7.029v4.7c0,1.683,0,3.232,0.041,3.707  c0.088,0.82,0.213,1.121,0.689,1.121h1.986c0.342,0,0.428,0.132,0.428,0.39v0.733c0,0.302-0.086,0.431-0.385,0.431  c-0.347,0-2.33-0.129-4.142-0.129c-2.502,0-4.187,0.129-4.657,0.129c-0.214,0-0.347-0.086-0.347-0.345v-0.862  c0-0.259,0.133-0.347,0.435-0.347h2.11c0.476,0,0.647-0.172,0.688-0.86c0.043-1.295,0.043-2.631,0.043-3.927v-6.335H297.115z   M295.176,54.771c0-1.078,0.906-2.239,2.632-2.239c1.51,0,2.241,1.161,2.241,2.11c0,1.121-0.776,2.373-2.502,2.373  C296.601,57.015,295.176,56.151,295.176,54.771"/>
<path fill="#FFFFFF" d="M308.006,64.56h-2.978c-0.213,0-0.301-0.086-0.213-0.473l0.172-1.297c0.041-0.26,0.171-0.299,0.517-0.299  h2.502v-0.822c0-4.268,1.205-7.07,2.889-8.967c2.285-2.5,4.658-3.406,7.072-3.406c2.025,0,3.924,0.775,3.924,2.412  c0,1.037-1.121,1.855-1.811,1.855c-0.432,0-0.865-0.084-1.207-0.26c-0.391-0.216-0.863-0.775-1.035-0.988  c-0.562-0.691-1.164-0.992-1.984-0.992c-1.12,0-2.286,0.301-3.235,1.508c-1.594,2.027-1.508,5.779-1.508,8.797v0.863h5.219  c0.301,0,0.346,0.256,0.301,0.432l-0.213,1.424c-0.043,0.172-0.217,0.213-0.562,0.213h-4.744v3.838c0,5.088,0,9.058,0.045,9.531  c0.086,0.732,0.215,1.121,1.123,1.121h2.455c0.387,0,0.473,0.086,0.473,0.344v0.689c0,0.346-0.086,0.518-0.299,0.518  c-0.263,0-1.855-0.129-5.176-0.129c-2.371,0-4.572,0.129-4.915,0.129c-0.262,0-0.348-0.086-0.348-0.301v-0.949  c0-0.215,0.086-0.301,0.432-0.301h2.07c0.818,0,0.992-0.52,1.035-1.508v-8.109L308.006,64.56L308.006,64.56z"/>
<path fill="#FFFFFF" d="M318.238,78.013c-1.984-2.369-2.373-3.963-2.373-7.027c0-2.198,1.164-4.959,3.709-6.94  c2.242-1.729,4.356-2.069,5.776-2.069c2.373,0,4.744,1.207,6.039,2.502c1.941,1.981,2.933,4.225,2.933,7.026  c0,4.701-4.228,9.486-9.529,9.486C322.721,80.99,320.049,80.169,318.238,78.013 M330.699,71.071c0-4.786-3.492-7.805-5.691-7.805  c-1.164,0-2.287,0.26-3.32,1.379c-1.682,1.726-2.286,3.492-2.286,6.771c0,2.414,0.26,4.055,1.641,6.035  c0.992,1.424,2.242,2.244,4.27,2.244C328.588,79.696,330.699,75.685,330.699,71.071"/>
<path fill="#FFFFFF" d="M337.762,69.001c0-2.199-0.346-2.631-1.555-3.277l-0.816-0.432c-0.26-0.086-0.346-0.127-0.346-0.303v-0.256  c0-0.174,0.086-0.258,0.346-0.387l4.269-2.201c0.258-0.131,0.43-0.174,0.604-0.174c0.259,0,0.302,0.26,0.302,0.518l0.217,2.977  h0.172c1.293-1.984,3.322-3.752,5.176-3.752c1.467,0,2.197,0.904,2.197,1.898c0,1.248-1.033,2.111-1.81,2.111  c-0.475,0-0.907-0.173-1.252-0.345c-0.346-0.215-0.862-0.346-1.422-0.346c-0.69,0-1.811,0.432-2.543,1.812  c-0.258,0.475-0.434,1.25-0.434,1.377v9.06c0,1.336,0.301,1.766,1.207,1.766h2.026c0.261,0,0.302,0.131,0.302,0.39v0.776  c0,0.259-0.041,0.388-0.216,0.388c-0.26,0-2.241-0.129-4.569-0.129c-2.674,0-4.484,0.129-4.744,0.129  c-0.172,0-0.258-0.086-0.258-0.433v-0.731c0-0.302,0.086-0.39,0.473-0.39h1.682c0.648,0,0.949-0.26,0.949-0.817  c0.045-1.422,0.045-2.933,0.045-5.177L337.762,69.001L337.762,69.001z"/>
<path fill="#FFFFFF" d="M366.695,78.144c0,0.691,0.389,0.906,0.948,0.906h1.382c0.387,0,0.475,0.129,0.475,0.387v0.689  c0,0.303-0.088,0.475-0.348,0.475c-0.299,0-1.636-0.129-4.097-0.129c-2.198,0-3.577,0.129-3.879,0.129  c-0.26,0-0.346-0.129-0.346-0.475v-0.689c0-0.301,0.127-0.387,0.561-0.387h1.25c0.476,0,0.818-0.215,0.863-0.992  c0.043-1.121,0.086-2.502,0.086-3.621v-5.694c0-1.726,0-2.976-1.25-3.882c-1.037-0.772-2.069-0.772-3.147-0.772  c-0.691,0-2.197,0.302-3.492,1.681c-0.861,0.95-0.994,2.112-0.994,2.934v8.926c0,1.162,0.133,1.424,1.037,1.424h1.076  c0.346,0,0.432,0.129,0.432,0.432v0.732c0,0.258-0.086,0.387-0.301,0.387c-0.303,0-1.467-0.129-3.754-0.129  c-2.199,0-3.578,0.129-3.836,0.129c-0.215,0-0.304-0.129-0.304-0.387v-0.777c0-0.258,0.089-0.387,0.433-0.387h1.25  c0.561,0,0.863-0.131,0.863-0.863v-10.09c0-1.295-0.689-2.024-1.769-2.545l-0.346-0.174c-0.304-0.129-0.345-0.26-0.345-0.387v-0.215  c0-0.217,0.173-0.346,0.388-0.43l3.707-2.074c0.348-0.172,0.604-0.301,0.778-0.301c0.216,0,0.302,0.174,0.343,0.518l0.305,2.629  h0.084c1.252-1.551,3.752-3.146,5.91-3.146c1.291,0,2.631,0.26,3.666,0.951c1.291,0.861,2.369,3.016,2.369,4.094L366.695,78.144  L366.695,78.144z"/>
<path fill="#FFFFFF" d="M373.855,67.925c0-1.467-0.259-2.244-2.416-2.59c-0.3-0.043-0.386-0.127-0.386-0.301v-0.389  c0-0.129,0.086-0.215,0.302-0.299c1.379-0.521,3.02-1.209,4.657-2.113c0.345-0.174,0.562-0.26,0.82-0.26  c0.213,0,0.258,0.215,0.213,0.516c-0.086,0.732-0.086,3.451-0.086,7.029v4.7c0,1.683,0,3.232,0.045,3.707  c0.086,0.82,0.213,1.121,0.689,1.121h1.981c0.349,0,0.431,0.132,0.431,0.39v0.733c0,0.302-0.082,0.431-0.386,0.431  c-0.348,0-2.33-0.129-4.141-0.129c-2.5,0-4.184,0.129-4.658,0.129c-0.213,0-0.344-0.086-0.344-0.345v-0.862  c0-0.259,0.131-0.347,0.432-0.347h2.111c0.475,0,0.648-0.172,0.688-0.86c0.044-1.295,0.044-2.631,0.044-3.927v-6.335H373.855z   M371.918,54.771c0-1.078,0.906-2.239,2.631-2.239c1.508,0,2.242,1.161,2.242,2.11c0,1.121-0.777,2.373-2.504,2.373  C373.34,57.015,371.918,56.151,371.918,54.771"/>
<path fill="#FFFFFF" d="M393.738,75.341c0,2.459,0.518,3.232,1.291,3.232c0.692,0,1.297-0.344,1.512-0.645  c0.172-0.22,0.26-0.304,0.432-0.173l0.429,0.345c0.129,0.129,0.219,0.348-0.043,0.774c-0.345,0.647-1.16,2.112-3.361,2.112  c-1.551,0-2.672-1.122-3.062-2.889h-0.086c-0.903,1.078-2.327,1.982-4.27,2.629c-0.818,0.26-1.594,0.26-2.543,0.26  c-1.035,0-2.588-0.862-2.588-3.579c0-1.982,0.905-3.707,4.312-5.22c1.939-0.86,4.185-1.895,4.873-2.498v-2.762  c-0.086-0.731-0.131-1.854-0.604-2.412c-0.476-0.562-1.336-0.951-2.586-0.951c-0.863,0-2.199,0.347-2.804,0.908  c-0.604,0.558-0.217,1.205-0.217,1.98c0,1.51-0.516,2.459-2.283,2.459c-0.69,0-1.037-0.389-1.037-1.381  c0-1.379,1.209-3.016,2.978-4.053c1.812-1.078,3.317-1.508,5.262-1.508c2.027,0,2.844,0.604,3.449,1.163  c0.906,0.906,0.949,1.896,0.949,3.062v6.598L393.738,75.341L393.738,75.341z M390.59,70.985c-1.553,1.166-5.779,2.025-5.779,5.604  c0,1.599,0.949,2.373,2.244,2.373c1.25,0,3.535-1.51,3.535-2.674V70.985z"/>
<g>
	<path fill="#FFFFFF" d="M61.934,54.792c-4.012,9.781-11.686,23.168-25.528,31.604C22.543,78,14.829,64.625,10.792,54.856   c-3.713-9-5.073-16.644-5.414-18.885c1.656-0.932,3.31-1.381,5.177-1.385h0.018c1.305,0,3.151,0.24,4.215,0.547l0.588,0.174   c0.558,0.164,1.13,0.33,1.716,0.496c2.047,0.59,4.376,1.186,6.123,1.186h0.011c1.961-0.002,5.013-0.258,8.448-1.471   c0.98-0.342,2.149-0.715,3.396-0.881l1.131-0.082c0.021,0,0.044,0,0.065,0l1.748,0.158c1.062,0.18,2.062,0.5,2.899,0.795   c3.421,1.197,6.468,1.449,8.433,1.449h0.025c1.184-0.004,2.723-0.27,4.849-0.842c0.87-0.234,1.753-0.496,2.594-0.744l0.986-0.293   c1.05-0.301,2.975-0.553,4.292-0.557h0.014c1.86,0,3.565,0.453,5.202,1.338C66.977,38.059,65.647,45.737,61.934,54.792    M4.524,21.416l20.162,4.414c-0.177,0.309-0.342,0.623-0.497,0.945L4.458,24.143C4.46,23.271,4.486,22.352,4.524,21.416    M5.22,14.045l20.942,9.701c-0.397,0.461-0.769,0.947-1.104,1.461L4.625,19.48C4.745,17.736,4.936,15.916,5.22,14.045 M5.77,10.904   c0.811,0.176,2.41,0.486,4.479,0.705l17.009,11.002c-0.229,0.207-0.442,0.428-0.652,0.65l-21.04-11.26   C5.633,11.635,5.695,11.271,5.77,10.904 M14.829,11.85c2.186,0,4.249-0.186,6.17-0.543l8.583,9.617   c-0.649,0.377-1.263,0.805-1.839,1.283L13.569,11.832C13.983,11.844,14.397,11.854,14.829,11.85 M25.785,10.004l5.696,10.006   c-0.385,0.146-0.763,0.312-1.13,0.496l-7.245-9.68C24.045,10.572,24.937,10.299,25.785,10.004 M33.319,6.367l1.734,12.807   c-0.961,0.09-1.889,0.289-2.78,0.57L27.499,9.357C29.887,8.393,31.838,7.318,33.319,6.367 M36.307,4.182   c0.422,0.359,0.854,0.693,1.288,1.018l-0.772,13.939c-0.161-0.008-0.319-0.025-0.485-0.025H36.32c-0.167,0-0.333,0.018-0.5,0.025   L35.047,5.178C35.604,4.764,36.032,4.418,36.307,4.182 M39.284,6.367c2.036,1.32,4.051,2.293,5.774,2.986l-4.767,10.369   c-0.882-0.273-1.799-0.465-2.742-0.551L39.284,6.367z M46.778,9.998c1.215,0.416,2.169,0.672,2.69,0.799l-7.253,9.695   c-0.366-0.184-0.744-0.346-1.133-0.494L46.778,9.998z M51.624,11.234c2.126,0.375,4.327,0.566,6.583,0.562   c0.273,0,0.528-0.008,0.791-0.016L44.817,22.164c-0.572-0.467-1.184-0.889-1.828-1.256L51.624,11.234z M62.286,11.588   c2.145-0.217,3.749-0.555,4.562-0.748c0.075,0.367,0.137,0.73,0.208,1.098L45.967,23.223c-0.211-0.225-0.432-0.443-0.665-0.648   L62.286,11.588z M67.409,13.986c0.295,1.912,0.493,3.775,0.615,5.555l-20.419,5.721c-0.356-0.547-0.748-1.064-1.177-1.555   L67.409,13.986z M68.193,24.168l-19.714,2.637c-0.154-0.316-0.32-0.629-0.496-0.932l20.146-4.41   C68.165,22.395,68.19,23.305,68.193,24.168 M62.178,28.398c-1.252,0.004-3.32,0.23-4.604,0.605l-0.914,0.27   c-0.856,0.252-1.756,0.521-2.651,0.758l0,0c-1.224,0.328-2.972,0.75-4.342,0.789c-0.155-1.162-0.453-2.277-0.885-3.328   l19.396-1.457c-0.028,1.346-0.086,2.584-0.165,3.688C66.24,28.898,64.185,28.438,62.178,28.398 M62.099,30.877h-0.015   c-1.259,0-3.328,0.227-4.611,0.605l-0.889,0.262c-0.86,0.252-1.767,0.521-2.666,0.762l0.15,0.559l-0.15-0.559   c-1.287,0.346-3.159,0.803-4.555,0.803h-0.021c-1.871,0-4.777-0.24-8.051-1.385c-0.831-0.287-1.939-0.646-3.104-0.848   c-0.662-0.113-1.282-0.166-1.901-0.166c-0.457,0-0.901,0.031-1.358,0.09c-1.345,0.172-2.594,0.572-3.637,0.939   c-3.279,1.154-6.198,1.402-8.069,1.406h-0.007c-1.592,0-3.827-0.576-5.81-1.141l-2.299-0.67c-1.162-0.338-3.109-0.594-4.537-0.594   h-0.021c-1.979,0.004-3.914,0.49-5.67,1.371c-0.041-0.381-0.082-0.791-0.122-1.236c1.734-0.918,3.847-1.459,5.89-1.459h0.018   c1.31,0,3.157,0.238,4.216,0.547l2.303,0.67l0.158-0.555l-0.156,0.555c2.158,0.615,4.395,1.188,6.125,1.188h0.011   c1.96-0.004,5.019-0.266,8.446-1.473c0.98-0.348,2.149-0.723,3.391-0.881l1.216-0.082l1.732,0.15   c1.08,0.188,2.115,0.525,2.899,0.799c3.421,1.199,6.468,1.449,8.429,1.449h0.025c1.184,0,2.68-0.258,4.85-0.84l0,0   c0.902-0.242,1.812-0.512,2.677-0.768l0.909-0.266c1.047-0.307,2.972-0.559,4.288-0.561h0.012c1.968,0,4.029,0.514,5.724,1.391   c-0.04,0.473-0.083,0.904-0.123,1.303C66.031,31.363,64.082,30.877,62.099,30.877 M36.383,28.432l-0.002,0.086l-0.004-0.086   c-0.45,0.004-0.906,0.035-1.356,0.094c-1.353,0.172-2.601,0.57-3.639,0.938c-2.815,0.994-5.362,1.314-7.211,1.387   c0.84-6.062,5.957-10.574,12.151-10.584h0.015c6.116,0,11.3,4.572,12.159,10.547c-1.842-0.076-4.346-0.396-7.111-1.363   c-0.832-0.291-1.936-0.648-3.102-0.85l-0.007,0.025L38.28,28.6C37.619,28.488,36.996,28.432,36.383,28.432 M4.475,26.018   l19.401,1.461c-0.429,1.057-0.722,2.186-0.873,3.367c-1.569-0.062-3.643-0.588-5.505-1.115l-2.299-0.67   c-1.166-0.338-3.112-0.594-4.535-0.594h-0.021c-2.059,0-4.179,0.516-5.986,1.381C4.573,28.709,4.505,27.424,4.475,26.018    M62.106,33.371h-0.018c-1.252,0.002-3.32,0.23-4.612,0.604l-0.989,0.291c-0.831,0.248-1.701,0.504-2.564,0.734l0.146,0.559   L53.922,35c-2.025,0.547-3.473,0.803-4.555,0.807h-0.025c-1.871,0-4.781-0.242-8.051-1.387c-0.885-0.309-1.949-0.654-3.102-0.848   c-1.168-0.199-2.184-0.223-3.261-0.08c-1.354,0.178-2.599,0.576-3.638,0.943c-3.283,1.154-6.199,1.398-8.066,1.402h-0.011   c-1.604,0-3.835-0.578-5.807-1.145l-0.158,0.559l0.156-0.559c-0.581-0.162-1.153-0.33-1.703-0.492l-0.595-0.172   c-1.172-0.342-3.113-0.594-4.533-0.594H10.55c-1.928,0.004-3.648,0.449-5.355,1.338c-0.046-0.291-0.105-0.713-0.178-1.248   c1.691-0.926,3.59-1.428,5.533-1.432h0.018c1.313,0,3.16,0.24,4.217,0.549l2.299,0.666l0.162-0.551l-0.158,0.551   c2.16,0.615,4.397,1.188,6.126,1.188h0.011c1.961-0.004,5.017-0.262,8.447-1.471c0.984-0.35,2.158-0.723,3.392-0.883l1.13-0.082   c0.025,0,0.047,0,0.072,0l1.74,0.154c1.076,0.184,2.116,0.521,2.903,0.799c3.429,1.195,6.472,1.447,8.433,1.447h0.025   c1.18,0,2.673-0.26,4.85-0.842c0.91-0.246,1.824-0.516,2.694-0.773l0.889-0.26c1.039-0.307,2.964-0.557,4.288-0.557h0.011   c1.946,0,3.856,0.496,5.554,1.424c-0.064,0.514-0.122,0.92-0.165,1.209C65.791,33.812,64.027,33.371,62.106,33.371 M69.272,21.211   l-0.111-1.99c-0.133-1.838-0.353-3.766-0.666-5.736l-0.223-1.336c-0.125-0.711-0.266-1.424-0.424-2.145l-0.13-0.6l-0.59,0.172   c-0.021,0.008-0.972,0.277-2.576,0.543l-3.889,0.443c-0.773,0.051-1.594,0.082-2.457,0.082c-2.267,0.004-4.482-0.201-6.616-0.59   l-1.366-0.266c-0.025-0.008-0.05-0.012-0.072-0.014c-0.028-0.008-1.126-0.238-2.792-0.807l-1.812-0.676   c-1.813-0.725-3.961-1.77-6.095-3.195l-1.78-1.299c-0.334-0.262-0.665-0.531-0.989-0.82l-0.396-0.342l-0.382,0.359   c-0.011,0.012-0.331,0.311-0.938,0.789L33.15,5.092c-1.488,0.986-3.557,2.17-6.133,3.213l-1.812,0.676   c-0.876,0.299-1.795,0.584-2.767,0.832c-0.023,0.004-0.05,0.008-0.071,0.014l-1.576,0.346c-1.854,0.342-3.848,0.525-5.961,0.525   c-1.035,0-2.021-0.039-2.948-0.107L7.986,10.14c-1.541-0.248-2.492-0.484-2.51-0.488l-0.58-0.148l-0.13,0.584   c-0.125,0.576-0.23,1.146-0.336,1.715l-0.297,1.742c-0.303,1.928-0.514,3.816-0.641,5.619l-0.113,2   c-0.041,0.975-0.062,1.918-0.066,2.824l0.014,1.941c0.11,5.451,0.76,9.211,0.811,9.514c0.061,0.463,1.214,9.24,5.576,19.824   c4.102,9.935,11.95,23.535,26.081,32.107l0.615,0.371l0.607-0.371C51.13,78.765,58.94,65.142,63.012,55.199   c4.339-10.594,5.473-19.378,5.525-19.839c0.055-0.303,0.685-4.018,0.789-9.414l0.014-1.928   C69.333,23.113,69.315,22.18,69.272,21.211"/>
	<path fill="#FFFFFF" d="M52.742,48.414c-0.176,0.18-0.41,0.276-0.661,0.276l-4.396,0.009c-0.518,0-0.936-0.423-0.939-0.937   c0-0.514,0.422-0.936,0.936-0.936l0.716-0.004c0,0.004,0.004,0.008,0.004,0.012l0.011-0.012h0.942l2.73-0.004   c0.511,0,0.932,0.422,0.932,0.936C53.015,48.003,52.918,48.237,52.742,48.414 M51.875,50.022c-0.166,0.164-0.396,0.248-0.677,0.248   l-2.681,0.004c-0.449,0-0.762-0.332-0.881-0.883c0.018,0,0.032,0.004,0.047,0.004l4.396-0.006c0.024,0,0.046-0.016,0.071-0.016   C52.102,49.644,52.022,49.875,51.875,50.022 M50.774,61.333l-1.78,0.002l-0.476-10.359l0,0l2.681-0.004   c0.021,0,0.036-0.01,0.058-0.014L50.774,61.333z M51.954,62.791c0,0.416-0.342,0.758-0.758,0.758l-2.559,0.005l-0.004,0.35v-0.35   c-0.417,0-0.751-0.343-0.751-0.761c0-0.416,0.338-0.754,0.751-0.754l1.447-0.004l1.111-0.004   C51.609,62.031,51.954,62.373,51.954,62.791 M49.885,69.196c-0.306,0-0.557-0.247-0.557-0.567l-0.198-4.377h1.511L50.44,68.64   C50.44,68.949,50.192,69.196,49.885,69.196 M46.353,44.63c0-0.58,0.237-1.062,0.485-1.568c0.299-0.609,0.63-1.281,0.493-2.123   c0.429,0.176,0.985,0.482,1.399,0.918c-0.007,0.006-0.015,0.014-0.021,0.018c-0.101,0.111-0.205,0.227-0.292,0.328   c-0.021,0.018-1.791,1.744-0.518,3.923h-0.224c-0.125,0.004-0.248,0.021-0.37,0.047C47.112,46.087,46.356,45.69,46.353,44.63    M50.192,40.889c0.097-0.277,0.1-0.576,0.05-0.855c0.72,0.654,1.568,1.689,1.579,2.936c0.011,1.546-0.975,2.736-1.371,3.154h-0.251   c-0.31-0.424-0.91-1.389-0.273-2.46c0.126-0.215,0.705-1.107,0.776-1.277c0.098-0.207,0.087-0.402,0.087-0.402   c-0.097,0.158-0.267,0.346-0.267,0.346c-0.165,0.18-0.733,0.77-0.913,0.986c-0.939,1.14-0.31,2.384-0.062,2.808l-0.813,0.004   c-1.399-1.876,0.098-3.353,0.188-3.443c0.104-0.117,0.205-0.23,0.302-0.334C49.616,41.926,49.954,41.559,50.192,40.889    M52.271,41.482c0.298-0.363,0.575-0.594,0.802-0.738c-0.176,1.613,0.662,3.217,0.677,3.238c0.399,1.378-0.965,2.046-1.299,2.187   c-0.119-0.029-0.241-0.047-0.374-0.047h-0.709c0.518-0.67,1.158-1.781,1.148-3.158C52.516,42.383,52.271,41.482,52.271,41.482    M53.192,46.565c0.784-0.481,1.618-1.417,1.201-2.844c-0.007-0.02-0.996-1.926-0.511-3.447l0.162-0.514l-0.536,0.061   c-0.083,0.008-0.81,0.133-1.647,1.072c-0.827-1.342-2.166-2.17-2.249-2.217l-1.331-0.787l0.864,1.285   c0.154,0.229,0.561,0.996,0.389,1.48c-0.094,0.271-0.213,0.477-0.35,0.666c-0.885-0.895-2.234-1.262-2.291-1.277l-0.695-0.184   l0.285,0.658c0.389,0.893,0.082,1.516-0.271,2.234c-0.263,0.537-0.558,1.137-0.554,1.878c0,0.959,0.475,1.578,0.936,1.925   c-0.335,0.299-0.547,0.729-0.547,1.213c0.004,0.614,0.352,1.146,0.859,1.424c0.076,0.824,0.439,1.346,0.903,1.598l0.489,10.619   c-0.637,0.154-1.119,0.703-1.119,1.385c0,0.73,0.551,1.311,1.248,1.418l0.205,4.432c0,0.691,0.562,1.252,1.252,1.252   c0.691,0,1.252-0.561,1.252-1.235l0.205-4.439c0.73-0.079,1.311-0.68,1.307-1.428c0-0.707-0.512-1.269-1.177-1.399l0.489-10.613   c0.147-0.07,0.291-0.146,0.406-0.262c0.32-0.32,0.489-0.787,0.525-1.373c0.119-0.072,0.244-0.136,0.346-0.234   c0.306-0.307,0.479-0.721,0.475-1.152C53.713,47.285,53.512,46.865,53.192,46.565"/>
	<path fill="#FFFFFF" d="M24.674,48.724l-4.393,0.008c-0.518,0-0.938-0.418-0.938-0.934c0-0.252,0.095-0.484,0.271-0.66   c0.177-0.182,0.411-0.277,0.66-0.277h0.714c0,0,0.004,0.005,0.004,0.007l0.011-0.007h0.946l1.381-0.004h1.346   c0.515,0,0.932,0.418,0.938,0.933C25.616,48.306,25.193,48.724,24.674,48.724 M24.482,50.065c-0.159,0.158-0.39,0.24-0.688,0.24   l-2.676,0.004c-0.443,0-0.76-0.338-0.883-0.885c0.019,0,0.031,0.008,0.047,0.008l4.393-0.008c0.027,0,0.051-0.008,0.076-0.008   C24.702,49.687,24.625,49.921,24.482,50.065 M23.373,61.369l-1.78,0.004l-0.479-10.365c0.003,0,0.005,0,0.005,0l2.678-0.002   c0.02,0,0.033-0.008,0.054-0.008L23.373,61.369z M24.547,62.826c0,0.2-0.078,0.393-0.222,0.534   c-0.142,0.146-0.335,0.226-0.538,0.226h-2.553l-0.003,0.349v-0.349c-0.417,0-0.757-0.338-0.757-0.756s0.34-0.761,0.757-0.761h1.446   l1.107-0.004C24.208,62.065,24.547,62.408,24.547,62.826 M22.484,69.229c-0.308,0-0.562-0.248-0.562-0.569l-0.199-4.373   l1.516-0.004l-0.203,4.393C23.036,68.981,22.788,69.229,22.484,69.229 M18.952,44.666c0-0.578,0.235-1.06,0.485-1.568   c0.299-0.607,0.63-1.281,0.493-2.127c0.428,0.182,0.988,0.482,1.396,0.918c-0.009,0.008-0.015,0.018-0.025,0.029   c-0.097,0.107-0.202,0.219-0.288,0.32c-0.021,0.018-1.791,1.74-0.52,3.923h-0.218c-0.115,0-0.22,0.043-0.331,0.068   C19.865,46.199,18.954,45.835,18.952,44.666 M22.786,40.926c0.1-0.281,0.1-0.58,0.051-0.863c0.719,0.654,1.572,1.689,1.581,2.941   c0.013,1.546-0.973,2.738-1.372,3.154H22.8c-0.31-0.425-0.912-1.387-0.275-2.458c0.127-0.221,0.705-1.109,0.78-1.281   c0.088-0.209,0.079-0.398,0.079-0.398c-0.097,0.158-0.263,0.342-0.263,0.342c-0.169,0.182-0.733,0.77-0.91,0.988   c-0.944,1.14-0.31,2.384-0.068,2.808l-0.813,0.004c-1.398-1.876,0.096-3.355,0.188-3.441c0.101-0.119,0.203-0.227,0.297-0.328   C22.208,41.965,22.547,41.598,22.786,40.926 M24.864,41.518c0.299-0.363,0.58-0.592,0.804-0.736   c-0.175,1.611,0.66,3.215,0.677,3.234c0.398,1.379-0.965,2.049-1.295,2.187c-0.123-0.024-0.246-0.045-0.375-0.045h-0.709   c0.517-0.673,1.162-1.779,1.148-3.158C25.11,42.414,24.864,41.518,24.864,41.518 M25.788,46.601   c0.787-0.481,1.617-1.419,1.204-2.845c-0.011-0.018-1.001-1.924-0.517-3.445l0.166-0.52l-0.54,0.066   c-0.081,0.006-0.804,0.129-1.642,1.068c-0.832-1.342-2.17-2.166-2.252-2.213l-1.319-0.781l0.854,1.273   c0.162,0.248,0.558,1,0.385,1.486c-0.096,0.27-0.212,0.475-0.347,0.666c-0.884-0.896-2.232-1.264-2.292-1.277l-0.694-0.184   l0.286,0.658c0.389,0.889,0.083,1.514-0.271,2.234c-0.261,0.531-0.556,1.137-0.556,1.876c0.001,1.033,0.518,1.619,0.938,1.928   c-0.02,0.023-0.05,0.029-0.07,0.051c-0.307,0.312-0.476,0.721-0.475,1.154c0,0.615,0.348,1.148,0.856,1.426   c0.071,0.744,0.405,1.32,0.903,1.598l0.49,10.619c-0.637,0.154-1.118,0.705-1.118,1.39c0,0.729,0.547,1.305,1.245,1.409   l0.204,4.437c0,0.691,0.563,1.257,1.256,1.257c0.688,0,1.252-0.564,1.252-1.242l0.205-4.437c0.331-0.035,0.641-0.158,0.878-0.397   c0.277-0.277,0.428-0.646,0.424-1.029c0-0.701-0.51-1.264-1.176-1.4l0.487-10.598c0.155-0.072,0.304-0.15,0.423-0.27   c0.309-0.31,0.475-0.773,0.513-1.359c0.487-0.285,0.822-0.807,0.822-1.41C26.312,47.319,26.106,46.899,25.788,46.601"/>
	<path fill="#FFFFFF" d="M40.42,50.464c-0.273,0.273-0.637,0.426-1.021,0.426l-6.148,0.006c-0.797,0-1.445-0.646-1.449-1.44   c0-0.799,0.649-1.451,1.446-1.451c0,0,4.094,0,4.104-0.006h2.047c0.795,0,1.442,0.646,1.442,1.44   C40.841,49.828,40.694,50.19,40.42,50.464 M38.168,52.908l-3.748,0.004h-0.004c-0.598,0-1.141-0.647-1.35-1.332   c0.062,0.004,0.123,0.019,0.184,0.019l6.148-0.011c0.075,0,0.151-0.014,0.227-0.021C39.403,52.233,38.795,52.908,38.168,52.908    M37.708,68.567l-2.76,0.002l-0.687-14.981c0.051,0.009,0.101,0.021,0.154,0.021h0.004l3.748-0.004c0.079,0,0.155-0.021,0.23-0.03   L37.708,68.567z M39.356,70.462c0,0.662-0.539,1.199-1.198,1.199l-3.568,0.006c-0.662,0-1.202-0.539-1.203-1.197   c0-0.662,0.538-1.201,1.196-1.201l2.693-0.004h0.875C38.813,69.265,39.352,69.8,39.356,70.462 M37.241,78.644   c0,0.24-0.094,0.472-0.267,0.646c-0.173,0.174-0.398,0.268-0.644,0.268h-0.004c-0.244,0-0.473-0.094-0.646-0.268   c-0.175-0.168-0.269-0.398-0.269-0.662l-0.291-6.262l2.408-0.004L37.241,78.644z M31.254,45.068   c-0.002-0.837,0.334-1.525,0.69-2.253c0.458-0.932,0.929-1.893,0.623-3.148c0.615,0.227,1.543,0.666,2.201,1.402   c-0.079,0.086-0.156,0.174-0.241,0.266c-0.135,0.145-0.277,0.299-0.399,0.443c-0.028,0.025-2.543,2.473-0.579,5.526h-0.304   c-0.184,0-0.358,0.032-0.53,0.075C32.557,47.319,31.258,46.763,31.254,45.068 M36.378,39.791c0.189-0.531,0.121-1.125-0.016-1.633   c1.079,0.879,2.68,2.525,2.691,4.59c0.021,2.267-1.454,3.998-1.993,4.55h-0.176c-0.288-0.434-0.602-1.133-0.602-1.932   c-0.002-1.531,0.745-2.423,0.745-2.423s-0.945,0.641-1.108,2.05c-0.077,0.676,0.07,1.389,0.511,2.309h-0.896   c-0.342-0.504-1.266-1.957-0.299-3.585c0.18-0.303,1.146-1.547,1.252-1.789c0.124-0.287,0.113-0.557,0.113-0.557   c-0.135,0.223-0.369,0.482-0.369,0.482c-0.233,0.256-1.025,1.078-1.277,1.377c-1.433,1.742-0.252,3.656-0.007,4.072h-0.542   c-2.105-2.748,0.104-4.923,0.226-5.042c0.141-0.162,0.277-0.309,0.407-0.453C35.583,41.221,36.049,40.713,36.378,39.791    M40.827,40.127c-0.453,2.166,0.274,3.949,0.296,4c0.575,1.988-0.846,2.966-1.284,3.216c-0.141-0.029-0.292-0.047-0.443-0.047   l-1.398,0.002c0.729-0.881,1.772-2.496,1.755-4.552c-0.004-0.529-0.101-1.025-0.251-1.498   C40.01,40.648,40.486,40.311,40.827,40.127 M40.597,47.666c0.72-0.562,1.763-1.767,1.183-3.769   c-0.007-0.021-0.812-2.021-0.11-4.219l0.161-0.52l-0.539,0.064c-0.039,0.004-0.975,0.145-2.076,1.307   c-1.058-2.217-3.334-3.586-3.459-3.662L34.6,36.184l0.68,1.162c0.007,0.012,0.76,1.316,0.443,2.213   c-0.141,0.391-0.313,0.693-0.51,0.971c-1.203-1.281-3.038-1.723-3.117-1.742L31.42,38.63l0.278,0.637   c0.57,1.307,0.128,2.203-0.38,3.242c-0.375,0.766-0.764,1.561-0.762,2.564c0.001,1.385,0.739,2.248,1.392,2.684   c-0.511,0.396-0.845,1.008-0.845,1.699c0.003,0.842,0.496,1.561,1.203,1.914c0.117,0.797,0.595,1.615,1.268,2.004l-0.023,0.002   l0.704,15.232c-0.89,0.158-1.567,0.932-1.567,1.863c0.002,0.989,0.768,1.795,1.736,1.877l0.291,6.301   c0,0.428,0.169,0.834,0.471,1.139c0.307,0.303,0.709,0.473,1.137,0.473h0.008c0.43,0,0.835-0.17,1.139-0.475   c0.304-0.307,0.473-0.713,0.469-1.127l0.292-6.303c1.011-0.039,1.824-0.869,1.824-1.894c-0.004-0.959-0.724-1.744-1.647-1.871   l0.701-15.272h-0.004c0.684-0.418,1.184-1.223,1.288-1.986c0.187-0.096,0.366-0.219,0.521-0.373c0.406-0.408,0.63-0.947,0.626-1.52   C41.54,48.703,41.166,48.05,40.597,47.666"/>
</g>
</svg>